<svg xmlns="http://www.w3.org/2000/svg" fill="none" viewBox="0 0 1520 1700" height="1700" width="1520">
<path fill-opacity="0.6" fill="url(#paint0_linear_1707_19498)" d="M350.286 37.1629C337.597 29.8293 327.334 35.6765 327.334 50.2782V994.852C327.334 1000.45 331.269 1007.27 336.176 1010.15L1226.18 1523.94C1231.05 1526.76 1235 1524.48 1235 1518.88V574.311C1235 559.72 1224.72 541.982 1211.99 534.637L350.286 37.1629Z"></path>
<path fill="url(#paint1_linear_1707_19498)" d="M810.783 393.09L283.286 88.5095C270.597 81.1758 234.278 90.8483 234.278 105.45L232.279 1043.2C232.279 1048.79 236.225 1055.61 241.132 1058.5L1135.1 1577.91C1139.99 1580.73 1168 1566.9 1168 1561.31V625.69C1168 611.099 1157.72 593.361 1145.05 586.016L810.783 393.09Z"></path>
<path fill="white" d="M1138.89 1192.46V640.35C1138.89 625.748 1128.61 608.01 1115.94 600.665L254.231 103.158C241.542 95.8354 231.279 101.672 231.279 116.273V1046.85C231.279 1052.44 235.214 1059.27 240.121 1062.15L1130.18 1576.03C1135.05 1578.84 1139 1576.56 1139 1570.97V1275.3" opacity="0.4"></path>
<path fill-opacity="0.5" fill="url(#paint2_linear_1707_19498)" d="M411.002 783.923V1217.02C411.002 1227.26 418.453 1239.37 426.836 1244.03L1062.04 1618.45L1072.29 1612.86C1076.01 1611 1078.81 1606.34 1078.81 1601.68V1176.04C1078.81 1165.79 1071.36 1153.69 1062.98 1149.03L431.493 782.992C424.973 780.198 416.59 780.198 411.002 783.923Z"></path>
<path fill="white" d="M346.836 816.718C338.453 812.061 331.002 815.786 331.002 826.032V1252.61C331.002 1262.85 338.453 1274.96 346.836 1279.62L982.975 1647.52C991.358 1652.17 998.809 1648.45 998.809 1638.2V1211.63C998.809 1201.38 991.358 1189.27 982.975 1184.62L346.836 816.718Z"></path>
<path fill="url(#paint3_linear_1707_19498)" d="M413.052 1068.72H373.934C373.934 1051.03 376.728 1036.12 381.385 1023.09C386.973 1009.11 394.424 997.938 404.669 990.487C414.915 983.036 427.023 980.241 439.131 981.173L435.405 1028.67C430.748 1027.74 427.023 1028.67 424.229 1031.47C421.434 1033.33 418.64 1037.06 416.777 1042.64C414.915 1049.16 413.052 1058.48 413.052 1068.72Z"></path>
<path fill="#8B87FF" d="M513.641 1133.92C510.847 1120.88 506.19 1107.84 499.671 1095.73C494.082 1083.63 486.631 1071.52 479.18 1062.2C471.729 1051.96 463.346 1044.51 455.895 1038.92C448.444 1034.26 441.924 1030.54 436.336 1030.54L440.061 983.035C452.17 983.967 464.278 989.555 476.386 997.937C487.562 1006.32 498.739 1016.57 508.984 1030.54C518.298 1043.58 527.612 1057.55 535.063 1073.38C542.514 1089.21 548.103 1105.05 552.76 1121.81L513.641 1133.92Z"></path>
<path fill="#DFE6FD" d="M497.808 1257.8C495.945 1257.8 494.083 1257.8 492.22 1257.8C480.112 1256.87 468.004 1251.28 455.896 1242.89C444.719 1234.51 433.542 1224.27 423.297 1210.3C413.983 1197.26 404.669 1183.29 397.218 1167.45C389.767 1151.62 384.179 1135.78 379.522 1119.02C374.865 1101.32 373.002 1084.56 373.002 1068.72H412.12C412.12 1079.9 413.983 1092.94 416.777 1105.98C419.571 1119.02 424.228 1132.06 430.748 1144.17C436.336 1156.28 443.788 1168.38 451.239 1177.7C458.69 1187.94 467.072 1195.39 474.523 1200.98C481.975 1205.64 488.494 1209.36 494.083 1209.36C498.74 1210.3 502.465 1209.36 505.259 1206.57C508.054 1204.71 510.848 1200.98 512.711 1195.39C515.505 1188.87 516.436 1179.56 516.436 1170.25C516.436 1159.07 514.573 1146.03 511.779 1132.99L549.035 1119.02C553.692 1136.72 555.555 1153.48 555.555 1170.25C555.555 1187.94 552.76 1202.84 548.103 1215.88C542.515 1229.86 535.064 1241.03 524.819 1248.48C518.299 1255 508.054 1257.8 497.808 1257.8Z"></path>
<path fill="#F68BC6" d="M581.002 1086.51C581.002 1078.77 589.419 1073.97 596.085 1077.9L710.205 1145.27C713.252 1147.06 715.122 1150.34 715.122 1153.88V1167.19C715.122 1174.88 706.795 1179.69 700.128 1175.85L586.008 1110.07C582.911 1108.29 581.002 1104.98 581.002 1101.41V1086.51Z"></path>
<path fill="#DFE6FD" d="M581.002 1161.26C581.002 1155.05 587.743 1151.19 593.101 1154.32L945.859 1360.99C948.32 1362.43 949.833 1365.07 949.833 1367.92V1367.92C949.833 1374.13 943.091 1378 937.734 1374.86L584.976 1168.19C582.514 1166.75 581.002 1164.11 581.002 1161.26V1161.26Z"></path>
<path fill="#DFE6FD" d="M581.002 1214.35C581.002 1208.14 587.743 1204.27 593.101 1207.41L945.859 1414.08C948.32 1415.52 949.833 1418.16 949.833 1421.01V1421.01C949.833 1427.22 943.091 1431.09 937.734 1427.95L584.976 1221.28C582.514 1219.84 581.002 1217.2 581.002 1214.35V1214.35Z"></path>
<path fill="#DFE6FD" d="M581.002 1267.21C581.002 1260.7 588.082 1256.65 593.698 1259.95L945.87 1467.17C948.325 1468.61 949.833 1471.25 949.833 1474.1V1474.1C949.833 1480.31 943.088 1484.17 937.728 1481.03L585.168 1274.48C582.587 1272.97 581.002 1270.2 581.002 1267.21V1267.21Z"></path>
<path fill="#DFE6FD" d="M581.002 1320.3C581.002 1313.79 588.077 1309.75 593.677 1313.06L761.65 1412.32C763.985 1413.7 765.417 1416.21 765.417 1418.92V1418.92C765.417 1424.83 759.01 1428.52 753.898 1425.55L585.184 1327.56C582.595 1326.06 581.002 1323.29 581.002 1320.3V1320.3Z"></path>
<path fill-opacity="0.5" fill="url(#paint4_linear_1707_19498)" d="M700 413.923V847.02C700 857.265 707.451 869.373 715.834 874.03L1351.04 1248.45L1361.29 1242.86C1365.01 1241 1367.81 1236.34 1367.81 1231.68V806.039C1367.81 795.793 1360.36 783.685 1351.97 779.028L720.491 412.992C713.971 410.198 705.588 410.198 700 413.923Z"></path>
<path fill="white" d="M1292.02 822.826L654.167 455.452C646.093 450.406 636 456.462 636 465.545V918.706C636 930.817 643.065 942.929 653.158 948.984L1291.01 1319.39C1299.09 1324.43 1309.18 1318.38 1309.18 1309.29V853.104C1309.18 840.993 1302.12 828.881 1292.02 822.826Z"></path>
<path fill="#E3E9FD" d="M1152 837.433C1152 831.392 1158.54 827.617 1163.77 830.637L1241.94 875.766C1244.37 877.168 1245.86 879.758 1245.86 882.562V882.562C1245.86 888.603 1239.32 892.378 1234.09 889.358L1155.92 844.229C1153.5 842.827 1152 840.237 1152 837.433V837.433Z"></path>
<path fill="#E3E9FD" d="M1035 813.296C1035 809.573 1039 807.219 1042.25 809.025L1243.66 920.782C1245.21 921.644 1246.18 923.279 1246.18 925.053V925.053C1246.18 928.777 1242.18 931.131 1238.92 929.325L1037.51 817.568C1035.96 816.706 1035 815.071 1035 813.296V813.296Z"></path>
<path fill="#E3E9FD" d="M1168 922.269C1168 918.545 1172.05 916.234 1175.26 918.128L1243.67 958.542C1245.13 959.407 1246.03 960.982 1246.03 962.683V962.683C1246.03 966.407 1241.98 968.718 1238.77 966.824L1170.36 926.41C1168.9 925.545 1168 923.97 1168 922.269V922.269Z"></path>
<path fill="#DFE6FD" d="M827.763 658.577C827.763 662.959 823.03 665.706 819.225 663.532L710.734 601.537C708.833 600.45 707.66 598.429 707.66 596.24V596.24C707.66 591.538 712.754 588.604 716.821 590.962L824.919 653.641C826.679 654.661 827.763 656.542 827.763 658.577V658.577Z"></path>
<path fill="#DFE6FD" d="M827.763 692.892C827.763 697.273 823.03 700.02 819.225 697.846L710.734 635.851C708.833 634.765 707.66 632.743 707.66 630.554V630.554C707.66 625.853 712.754 622.918 716.821 625.277L824.919 687.955C826.679 688.976 827.763 690.857 827.763 692.892V692.892Z"></path>
<path fill="#DFE6FD" d="M767.204 692.918C767.204 697.291 762.483 700.036 758.682 697.872L704.482 667.02C702.701 666.006 701.602 664.115 701.602 662.065V662.065C701.602 657.692 706.323 654.947 710.123 657.111L764.323 687.963C766.104 688.977 767.204 690.868 767.204 692.918V692.918Z"></path>
<path fill="url(#paint5_linear_1707_19498)" d="M636 918.707V702.724C650.13 727.955 668.296 746.122 699.584 751.168C729.862 755.206 761.149 751.168 785.371 773.372C822.714 808.697 829.779 861.179 851.983 904.577C866.113 931.827 890.335 959.077 922.632 963.115C954.928 967.152 985.207 946.966 1016.49 945.957C1048.79 944.948 1078.06 959.078 1099.25 984.309C1129.53 1019.63 1124.49 1061.01 1139.62 1102.39C1162.84 1165.98 1227.43 1136.71 1277.89 1146.8C1290.01 1148.82 1300.1 1154.88 1309.18 1163.96V1310.3C1309.18 1319.39 1299.09 1325.44 1291.01 1320.4L653.158 949.994C642.056 942.929 636 931.827 636 918.707Z"></path>
<path fill="url(#paint6_linear_1707_19498)" d="M168.372 222.805C161.07 218.582 155 222.013 155 230.546V481.085C155.283 485.714 156.638 490.214 158.958 494.23C161.279 498.245 164.502 501.665 168.372 504.221L547.347 722.651C554.736 726.873 560.718 723.443 560.718 714.909V464.723C560.449 460.09 559.1 455.585 556.778 451.568C554.456 447.55 551.226 444.132 547.347 441.587L168.372 222.805Z" opacity="0.8"></path>
<path fill="url(#paint7_linear_1707_19498)" d="M111.372 249.805C104.07 245.582 98 249.013 98 257.546V508.085C98.2825 512.714 99.6376 517.214 101.958 521.23C104.279 525.245 107.502 528.665 111.372 531.221L490.347 749.651C497.736 753.873 503.718 750.443 503.718 741.909V491.723C503.449 487.09 502.1 482.585 499.778 478.568C497.456 474.55 494.226 471.132 490.347 468.587L111.372 249.805Z"></path>
<path fill="white" d="M133.188 450.103L168.639 470.336V500.773L133.188 480.54V450.103Z"></path>
<path fill="white" d="M193.622 485.463L229.074 505.696V536.134L193.622 515.9V485.463Z"></path>
<path fill="white" d="M242.096 512.996L277.548 533.229V563.667L242.096 543.434V512.996Z"></path>
<path fill="white" d="M293.293 542.472L328.745 562.705V593.142L293.293 572.909V542.472Z"></path>
<path fill="white" d="M352.673 576.86L388.125 597.005V627.531L352.673 607.298V576.86Z"></path>
<path fill="white" d="M197.307 357.065C197.307 353.215 201.491 350.824 204.808 352.78L468.423 508.191C469.871 509.044 470.759 510.599 470.759 512.279V512.279C470.759 515.949 466.773 518.23 463.609 516.371L199.761 361.354C198.241 360.46 197.307 358.829 197.307 357.065V357.065Z"></path>
<path fill="white" d="M197.307 390.763C197.307 387.097 201.292 384.82 204.45 386.682L468.54 542.373C469.915 543.183 470.759 544.661 470.759 546.257V546.257C470.759 549.743 466.972 551.91 463.966 550.144L199.644 394.848C198.196 393.997 197.307 392.443 197.307 390.763V390.763Z"></path>
<path fill="white" d="M197.307 424.738C197.307 420.89 201.491 418.502 204.804 420.458L322.619 490.03C324.066 490.885 324.954 492.441 324.954 494.121V494.121C324.954 497.793 320.968 500.077 317.801 498.22L199.763 429.026C198.242 428.134 197.307 426.502 197.307 424.738V424.738Z"></path>
<path fill="url(#paint8_linear_1707_19498)" d="M169.245 370.513C171.996 368.312 173.647 364.46 173.647 359.509C173.647 347.954 165.394 333.099 154.94 327.597C145.037 321.544 136.233 326.496 136.233 338.051C136.233 346.304 140.085 355.107 145.587 362.26C135.683 367.211 128.53 377.115 128.53 389.22V396.372L183.551 428.834V413.429C184.101 397.473 178.599 382.617 169.245 370.513Z"></path>
<defs>
<linearGradient gradientUnits="userSpaceOnUse" y2="1519.62" x2="781.174" y1="658.352" x1="781.174" id="paint0_linear_1707_19498">
<stop stop-color="#BFD1FF" offset="0.02"></stop>
<stop stop-color="white" offset="1"></stop>
</linearGradient>
<linearGradient gradientUnits="userSpaceOnUse" y2="1408.34" x2="701.146" y1="687.509" x1="701.146" id="paint1_linear_1707_19498">
<stop stop-color="#2575F2" offset="0.02"></stop>
<stop stop-color="#6A11C1" offset="1"></stop>
</linearGradient>
<linearGradient gradientUnits="userSpaceOnUse" y2="1199.61" x2="1078.64" y1="1199.61" x1="410.922" id="paint2_linear_1707_19498">
<stop stop-color="#623FE9"></stop>
<stop stop-color="#6D49E8" offset="0.1676"></stop>
<stop stop-color="#8C65E5" offset="0.7004"></stop>
<stop stop-color="#976FE4" offset="1"></stop>
</linearGradient>
<linearGradient gradientUnits="userSpaceOnUse" y2="1000.31" x2="442.46" y1="1058.78" x1="374.472" id="paint3_linear_1707_19498">
<stop stop-color="#E967CD"></stop>
<stop stop-color="#EB6FC3" offset="0.1594"></stop>
<stop stop-color="#F086A9" offset="0.4286"></stop>
<stop stop-color="#F8AA7E" offset="0.7724"></stop>
<stop stop-color="#FEC55E" offset="1"></stop>
</linearGradient>
<linearGradient gradientUnits="userSpaceOnUse" y2="829.608" x2="1367.64" y1="829.608" x1="699.92" id="paint4_linear_1707_19498">
<stop stop-color="#623FE9"></stop>
<stop stop-color="#6D49E8" offset="0.1676"></stop>
<stop stop-color="#8C65E5" offset="0.7004"></stop>
<stop stop-color="#976FE4" offset="1"></stop>
</linearGradient>
<linearGradient gradientUnits="userSpaceOnUse" y2="1078.65" x2="1331.9" y1="655.846" x1="702.277" id="paint5_linear_1707_19498">
<stop stop-color="#8B87FF"></stop>
<stop stop-color="#F68BC6" offset="1"></stop>
</linearGradient>
<linearGradient gradientUnits="userSpaceOnUse" y2="317.665" x2="357.8" y1="656.616" x1="357.8" id="paint6_linear_1707_19498">
<stop stop-color="#A278DE"></stop>
<stop stop-color="#C7DAFF" offset="1"></stop>
</linearGradient>
<linearGradient gradientUnits="userSpaceOnUse" y2="584.669" x2="568.522" y1="711.67" x1="115.002" id="paint7_linear_1707_19498">
<stop stop-color="#2575F2" offset="0.02"></stop>
<stop stop-color="#B881FF" offset="1"></stop>
</linearGradient>
<linearGradient gradientUnits="userSpaceOnUse" y2="376.442" x2="184.026" y1="376.442" x1="128.907" id="paint8_linear_1707_19498">
<stop stop-color="#E967CD"></stop>
<stop stop-color="#EB6FC3" offset="0.1594"></stop>
<stop stop-color="#F086A9" offset="0.4286"></stop>
<stop stop-color="#F8AA7E" offset="0.7724"></stop>
<stop stop-color="#FEC55E" offset="1"></stop>
</linearGradient>
</defs>
</svg>
